/* XPM */
static char * attack_right1_xpm[] = {
"64 64 10 1",
" 	c #087830",
".	c #262B44",
"+	c #181425",
"@	c #FFFFFF",
"#	c #E4A672",
"$	c #B86F50",
"%	c #C0CBDC",
"&	c #9E2835",
"*	c #124E89",
"=	c #0095E9",
"                                                                ",
"                                                                ",
"                                                                ",
"                                                                ",
"                                                                ",
"                                                                ",
"                                                                ",
"                                                                ",
"                                                                ",
"                                                                ",
"                                                                ",
"                                                                ",
"                                                                ",
"                                                                ",
"                                                                ",
"                                                                ",
"                                                                ",
"                                                                ",
"                                                                ",
"                                                                ",
"                                                                ",
"                                                                ",
"                                                                ",
"                                                                ",
"                                                                ",
"                              ......                            ",
"                             +.......                           ",
"                        @@@@+++......@@@                        ",
"                          @@+++++...@@@@@@                      ",
"                            ++++#+++@@@@@@@@                    ",
"                            ++++####@@@@@@@@                    ",
"                            ++#+#+#+ @@@@@@@@                   ",
"                             +$$####  @@@@@@@@                  ",
"                              +$####   @@@@@@@                  ",
"                              %@@@$&   @@@@@@@@                 ",
"                             .*===&    @@@@@@@@                 ",
"                            ...++...  @@@@@@@@@                 ",
"                            ........ @@@@@@@@@@                 ",
"                             ..#$..@@@@@@@@@@@@                 ",
"                               $@@@@@@@@@@@@@@@                 ",
"                                @@@@@@@@@@@@@@                  ",
"                                  @@@@@@@@@@@@                  ",
"                                   @@@@@@@@@@                   ",
"                                    @@@@@@@@@                   ",
"                                     @@@@@@@                    ",
"                                      @@@@@                     ",
"                                                                ",
"                                                                ",
"                                                                ",
"                                                                ",
"                                                                ",
"                                                                ",
"                                                                ",
"                                                                ",
"                                                                ",
"                                                                ",
"                                                                ",
"                                                                ",
"                                                                ",
"                                                                ",
"                                                                ",
"                                                                ",
"                                                                ",
"                                                                "};
