/* XPM */
static char *_58ee9f38bd24695d9d13d45b304f2c31In1C2drkGBfb7sh[] = {
/* columns rows colors chars-per-pixel */
"47 47 240 2 ",
"   c #8FB93D",
".  c #85B13B",
"X  c #7EAA39",
"o  c #86B13B",
"O  c #83AE3A",
"+  c #8BB53D",
"@  c #84AE3A",
"#  c #7FAA39",
"$  c #7DA938",
"%  c #7FA838",
"&  c #88B23B",
"*  c #85AE3A",
"=  c #83AC3A",
"-  c #87B13B",
";  c #85B03B",
":  c #80AB39",
">  c #7BA738",
",  c #88B33C",
"<  c #8AB53D",
"1  c #7EAA38",
"2  c #8CB63D",
"3  c #7AA537",
"4  c #78A537",
"5  c #82AD3A",
"6  c #7FA938",
"7  c #749D34",
"8  c #7CA638",
"9  c #8DB73D",
"0  c #8EB73D",
"q  c #86B23B",
"w  c #87B23B",
"e  c #75A236",
"r  c #7CA838",
"t  c #8AB43C",
"y  c #84AF3B",
"u  c #81AC3A",
"i  c #92BB3F",
"p  c #73A036",
"a  c #81AB39",
"s  c #88AF3B",
"d  c #82AB39",
"f  c #83AC39",
"g  c #85AF3A",
"h  c #8BB43C",
"j  c #90B93E",
"k  c #93BD3E",
"l  c #8AB53C",
"z  c #87B23C",
"x  c #8FB93E",
"c  c #93BB3E",
"v  c #94BC3F",
"b  c #81AC39",
"n  c #8EB83E",
"m  c #84AF3A",
"M  c #7CA738",
"N  c #8FB83E",
"B  c #8CB43D",
"V  c #89B23C",
"C  c #89B43C",
"Z  c #95BE3F",
"A  c #9AC140",
"S  c #9CC040",
"D  c #93BC3F",
"F  c #8CB73D",
"G  c #91BA3F",
"H  c #94BD3F",
"J  c #91BA3E",
"K  c #8FB83D",
"L  c #99BF40",
"P  c #82AE3A",
"I  c #78A436",
"U  c #7FAB39",
"Y  c #7DA838",
"T  c #8EB83D",
"R  c #8DB63D",
"E  c #89B23B",
"W  c #88B23C",
"Q  c #93BD3F",
"!  c #8BB63D",
"~  c #80AB3A",
"^  c #80AC39",
"/  c #85B13C",
"(  c #82AC39",
")  c #7BA036",
"_  c #81A638",
"`  c #87B03B",
"'  c #87B13C",
"]  c #83AD3A",
"[  c #7EA939",
"{  c #7DA638",
"}  c #7AA437",
"|  c #7BA838",
" . c #82AE39",
".. c #77A337",
"X. c #7BA336",
"o. c #7FA437",
"O. c #84AD3A",
"+. c #85B03A",
"@. c #77A437",
"#. c #729E34",
"$. c #7AA236",
"%. c #8CB53D",
"&. c #8AB23C",
"*. c #769933",
"=. c #81A838",
"-. c #89B53C",
";. c #7AA737",
":. c #8EB73C",
">. c #78A437",
",. c #88B33B",
"<. c #82AD39",
"1. c #8CB33B",
"2. c #8EB53D",
"3. c #75A237",
"4. c #85AD3A",
"5. c #8AB33C",
"6. c #93B93E",
"7. c #91B93D",
"8. c #92BC3E",
"9. c #94BE3F",
"0. c #84B03B",
"q. c #98BF40",
"w. c #97C040",
"e. c #80AC3A",
"r. c #83AF3A",
"t. c #92BD3F",
"y. c #90BA3E",
"u. c #92BB3E",
"i. c #719F35",
"p. c #8FBA3E",
"a. c #8CB63C",
"s. c #7EA838",
"d. c #80A939",
"f. c #7DA939",
"g. c #81AD3A",
"h. c #84B03A",
"j. c #7CA737",
"k. c #7FA537",
"l. c #7DA135",
"z. c #80A838",
"x. c #7AA738",
"c. c #7CA938",
"v. c #6F9D34",
"b. c #719D35",
"n. c #91BB3E",
"m. c #82AE3B",
"M. c #709B34",
"N. c #7DA337",
"B. c #7EA938",
"V. c #7BA938",
"C. c #6F9C35",
"Z. c #749C34",
"A. c #759C34",
"S. c #7AA336",
"D. c #79A538",
"F. c #83AF3B",
"G. c #7FAA38",
"H. c #7BA537",
"J. c #8FB73D",
"K. c #8CB33C",
"L. c #93BA3E",
"P. c #8DB83E",
"I. c #86AF3A",
"U. c #8FB43C",
"Y. c #96BE3F",
"T. c #95BD3F",
"R. c #95BE40",
"E. c #8DB83D",
"W. c #89B33C",
"Q. c #85AF3B",
"!. c #7DA839",
"~. c #77A136",
"^. c #7EA638",
"/. c #79A336",
"(. c #86AE3A",
"). c #789734",
"_. c #7C9E36",
"`. c #90BA3D",
"'. c #9ABF40",
"]. c #96BD40",
"[. c #7FAA3A",
"{. c #80A637",
"}. c #82A437",
"|. c #76A437",
" X c #7AA637",
".X c #86B03B",
"XX c #90B63C",
"oX c #98BB3F",
"OX c #97BE40",
"+X c #83AB39",
"@X c #77A436",
"#X c #86B13A",
"$X c #98C040",
"%X c #99BE40",
"&X c #91B93E",
"*X c #799B34",
"=X c #7A9E34",
"-X c #98C140",
";X c #92BC3F",
":X c #80AD39",
">X c #82AC3A",
",X c #749B34",
"<X c #7EA236",
"1X c #82A938",
"2X c #7BA236",
"3X c #7EA537",
"4X c #81AA39",
"5X c #7DA236",
"6X c #7EA337",
"7X c #74A035",
"8X c #779F35",
"9X c #769E35",
"0X c #83A838",
"qX c #7DA336",
"wX c #84A938",
"eX c #8EB93E",
"rX c #8BB63C",
"tX c #8AB33B",
"yX c #729C34",
"uX c #90B83E",
"iX c #84AE3B",
"pX c #89B13B",
"aX c #7DA738",
"sX c #8FB63D",
"dX c #88B13B",
"fX c #89B03B",
"gX c #87B03C",
"hX c #89B43D",
"jX c #8CB53C",
"kX c #91BB3F",
"lX c #96BF3F",
"zX c #8EB63D",
"xX c #88B03B",
"cX c #87AF3B",
"vX c #8EB73E",
"bX c #719E34",
"nX c #79A537",
"mX c #84AB39",
"MX c #7EAB39",
"NX c white",
/* pixels */
"  . X o O + @ # $ % & * = - X ; : > : , < ; 1 2   . X o O + @ # $ % & * = - X ; : > : , < ; 1 ",
"3 4 5 6 , : 7 8 9 0 q w X e r O w 0 9 t y u t i 3 4 5 6 , : 7 8 9 0 q w X e r O w 0 9 t y u t ",
"p a s d : f g h j k l z x t c v b # n m M r o u p a s d : f g h j k l z x t c v b # n m M r o ",
"z N B V C 0 Z A S D F G H J K L J # P C I U O Y z N B V C 0 Z A S D F G H J K L J # P C I U O ",
"< Z 9 w T R E C 9 v x j n x W C Q ! e ~ ^ n T ; < Z 9 w T R E C 9 v x j n x W C Q ! e ~ ^ n T ",
"x / r @ ( ) _ ` o W l ' ] ^ [ 5 U { } | O F  .& x / r @ ( ) _ ` o W l ' ] ^ [ 5 U { } | O F  .",
"+ ..; O X.o.O.= , +.t @.#.$.% %.&.*.=.T -.P ;.:.+ ..; O X.o.O.= , +.t @.#.$.% %.&.*.=.T -.P ;.",
">...,.<.1.2.i M $ . O 3.> 4.4.5.6.7.8.9.J t ; R >...,.<.1.2.i M $ . O 3.> 4.4.5.6.7.8.9.J t ; ",
"C 0.+.T q.q.w.8., u e.r., 9 C C t t.y.5 t D u.w C 0.+.T q.q.w.8., u e.r., 9 C C t t.y.5 t D u.",
"G >.i.l : +.p.F l h o , a.2 s.d.0.l $ > C y C x G >.i.l : +.p.F l h o , a.2 s.d.0.l $ > C y C ",
", P f.g.P r.m C m o F h.| j.k.l.z.x.c.u v.b.W y., P f.g.P r.m C m o F h.| j.k.l.z.x.c.u v.b.W ",
"[ Y a.%.y.D z C n.j w m.e M.k.N.X.B.V.C.Z.A.S.- [ Y a.%.y.D z C n.j w m.e M.k.N.X.B.V.C.Z.A.S.",
"D.z Z 9 2 y.t w 9 x P F.2 F.G.H.J.J : Y K.L.T : D.z Z 9 2 y.t w 9 x P F.2 F.G.H.J.J : Y K.L.T ",
"P.N n ; ^ O.- o I.r 0.g U.Y.x T.R.n.E.a.l W.C K P.N n ; ^ O.- o I.r 0.g U.Y.x T.R.n.E.a.l W.C ",
": Q.y !.O ~.^.W./.} (.)._.K `.'.].W.C r.r [.u t : Q.y !.O ~.^.W./.} (.)._.K `.'.].W.C r.r [.u ",
"m 2 ! P o @ Z.| 9 t {.}.- |.0.E.u.j 9 ; U  X4 .Xm 2 ! P o @ Z.| 9 t {.}.- |.0.E.u.j 9 ; U  X4 ",
" XX 2 m ; 9 XXoXOXn s - ! 2 9.5.+X9 q @XP #Xc.l  XX 2 m ; 9 XXoXOXn s - ! 2 9.5.+X9 q @XP #Xc.",
".X0 T H   i $X%X&X,..XU T w.(.*X=X6 ; a.w.x $ x..X0 T H   i $X%X&X,..XU T w.(.*X=X6 ; a.w.x $ ",
"G -X;Xj G J W.:Xa <.>X. +.s.,X<X1X2X3Xl ' e a O G -X;Xj G J W.:Xa <.>X. +.s.,X<X1X2X3Xl ' e a ",
"! T J 0 - a k.4X( 5X6X7Xv.6 4.8X9X0X_ 5 3.qXwXeX! T J 0 - a k.4X( 5X6X7Xv.6 4.8X9X0X_ 5 3.qXwX",
"b 0 T rXb $ ( +XtX.XZ.yXz uX& iXOX&XpXaX6 sXdX; b 0 T rXb $ ( +XtX.XZ.yXz uX& iXOX&XpXaX6 sXdX",
"t j l u y fXgXhXjXe.M %.;X# m.H W.kXlXW.zXu.v 9 t j l u y fXgXhXjXe.M %.;X# m.H W.kXlXW.zXu.v ",
";X; y ; x 2 K F c.o xXcX@ 5 l C C 9 .X- K   vX9 ;X; y ; x 2 K F c.o xXcX@ 5 l C C 9 .X- K   vX",
"T . Y .XX z c.>.bXnXmXo.=.h U w T r i.MX- P U e.T . Y .XX z c.>.bXnXmXo.=.h U w T r i.MX- P U ",
"  . X o O + @ # $ % & * = - X ; : > : , < ; 1 2   . X o O + @ # $ % & * = - X ; : > : , < ; 1 ",
"3 4 5 6 , : 7 8 9 0 q w X e r O w 0 9 t y u t i 3 4 5 6 , : 7 8 9 0 q w X e r O w 0 9 t y u t ",
"p a s d : f g h j k l z x t c v b # n m M r o u p a s d : f g h j k l z x t c v b # n m M r o ",
"z N B V C 0 Z A S D F G H J K L J # P C I U O Y z N B V C 0 Z A S D F G H J K L J # P C I U O ",
"< Z 9 w T R E C 9 v x j n x W C Q ! e ~ ^ n T ; < Z 9 w T R E C 9 v x j n x W C Q ! e ~ ^ n T ",
"x / r @ ( ) _ ` o W l ' ] ^ [ 5 U { } | O F  .& x / r @ ( ) _ ` o W l ' ] ^ [ 5 U { } | O F  .",
"+ ..; O X.o.O.= , +.t @.#.$.% %.&.*.=.T -.P ;.:.+ ..; O X.o.O.= , +.t @.#.$.% %.&.*.=.T -.P ;.",
">...,.<.1.2.i M $ . O 3.> 4.4.5.6.7.8.9.J t ; R >...,.<.1.2.i M $ . O 3.> 4.4.5.6.7.8.9.J t ; ",
"C 0.+.T q.q.w.8., u e.r., 9 C C t t.y.5 t D u.w C 0.+.T q.q.w.8., u e.r., 9 C C t t.y.5 t D u.",
"G >.i.l : +.p.F l h o , a.2 s.d.0.l $ > C y C x G >.i.l : +.p.F l h o , a.2 s.d.0.l $ > C y C ",
", P f.g.P r.m C m o F h.| j.k.l.z.x.c.u v.b.W y., P f.g.P r.m C m o F h.| j.k.l.z.x.c.u v.b.W ",
"[ Y a.%.y.D z C n.j w m.e M.k.N.X.B.V.C.Z.A.S.- [ Y a.%.y.D z C n.j w m.e M.k.N.X.B.V.C.Z.A.S.",
"D.z Z 9 2 y.t w 9 x P F.2 F.G.H.J.J : Y K.L.T : D.z Z 9 2 y.t w 9 x P F.2 F.G.H.J.J : Y K.L.T ",
"P.N n ; ^ O.- o I.r 0.g U.Y.x T.R.n.E.a.l W.C K P.N n ; ^ O.- o I.r 0.g U.Y.x T.R.n.E.a.l W.C ",
": Q.y !.O ~.^.W./.} (.)._.K `.'.].W.C r.r [.u t : Q.y !.O ~.^.W./.} (.)._.K `.'.].W.C r.r [.u ",
"m 2 ! P o @ Z.| 9 t {.}.- |.0.E.u.j 9 ; U  X4 .Xm 2 ! P o @ Z.| 9 t {.}.- |.0.E.u.j 9 ; U  X4 ",
" XX 2 m ; 9 XXoXOXn s - ! 2 9.5.+X9 q @XP #Xc.l  XX 2 m ; 9 XXoXOXn s - ! 2 9.5.+X9 q @XP #Xc.",
".X0 T H   i $X%X&X,..XU T w.(.*X=X6 ; a.w.x $ x..X0 T H   i $X%X&X,..XU T w.(.*X=X6 ; a.w.x $ ",
"G -X;Xj G J W.:Xa <.>X. +.s.,X<X1X2X3Xl ' e a O G -X;Xj G J W.:Xa <.>X. +.s.,X<X1X2X3Xl ' e a ",
"! T J 0 - a k.4X( 5X6X7Xv.6 4.8X9X0X_ 5 3.qXwXeX! T J 0 - a k.4X( 5X6X7Xv.6 4.8X9X0X_ 5 3.qXwX",
"b 0 T rXb $ ( +XtX.XZ.yXz uX& iXOX&XpXaX6 sXdX; b 0 T rXb $ ( +XtX.XZ.yXz uX& iXOX&XpXaX6 sXdX",
"t j l u y fXgXhXjXe.M %.;X# m.H W.kXlXW.zXu.v 9 t j l u y fXgXhXjXe.M %.;X# m.H W.kXlXW.zXu.v ",
";X; y ; x 2 K F c.o xXcX@ 5 l C C 9 .X- K   vX9 ;X; y ; x 2 K F c.o xXcX@ 5 l C C 9 .X- K   vX"
};
