/* XPM */
static char *_23fc217d77b48b8e7eebc2de9f436b6zF8mk4h1Wkd85Kt8[] = {
/* columns rows colors chars-per-pixel */
"47 47 162 2 ",
"   c None",
".  c #261C19",
"X  c #2A1F1B",
"o  c #1D2F1B",
"O  c #1F301D",
"+  c #2B201C",
"@  c #202F1D",
"#  c #31241F",
"$  c #332722",
"%  c #352823",
"&  c #3E2E28",
"*  c #233521",
"=  c #253822",
"-  c #293C27",
";  c #3C352B",
":  c #343D2C",
">  c #39392B",
",  c #402E27",
"<  c #402F2A",
"1  c #43322B",
"2  c #49352D",
"3  c #4D382F",
"4  c #4E3931",
"5  c #523D33",
"6  c #1E411B",
"7  c #274425",
"8  c #294427",
"9  c #2D442C",
"0  c #2E4C2B",
"q  c #30462D",
"w  c #30492D",
"e  c #265821",
"r  c #2C5C26",
"t  c #2D5329",
"y  c #2D5B28",
"u  c #315E28",
"i  c #324730",
"p  c #324930",
"a  c #256026",
"s  c #2C6225",
"d  c #2F6826",
"f  c #316626",
"g  c #356A27",
"h  c #396E27",
"j  c #336528",
"k  c #396629",
"l  c #356C28",
"z  c #3A6E28",
"x  c #3C7027",
"c  c #3D7229",
"v  c #574036",
"b  c #5A4237",
"n  c #5B4539",
"m  c #5E493D",
"M  c #624B3E",
"N  c #417629",
"B  c #457A2A",
"V  c #4A7E2B",
"C  c #654E41",
"Z  c #675043",
"A  c #6A5345",
"S  c #6E5749",
"D  c #735D4E",
"F  c #776253",
"G  c #7A6354",
"H  c #7D6758",
"J  c #4D812D",
"K  c #52852E",
"L  c #56892E",
"P  c #598C2F",
"I  c #5D912F",
"U  c #5C8E30",
"Y  c #5E9130",
"T  c #659733",
"R  c #669733",
"E  c #649533",
"W  c #639431",
"Q  c #679932",
"!  c #679932",
"~  c #689932",
"^  c #699A33",
"/  c #6B9B33",
"(  c #6B9C33",
")  c #6A9C33",
"_  c #6D9E33",
"`  c #6A9E34",
"'  c #6D9C34",
"]  c #6E9E35",
"[  c #6B9C33",
"{  c #6FA035",
"}  c #6EA034",
"|  c #70A035",
" . c #71A135",
".. c #71A234",
"X. c #73A234",
"o. c #71A336",
"O. c #73A535",
"+. c #73A436",
"@. c #74A435",
"#. c #76A535",
"$. c #75A637",
"%. c #77A736",
"&. c #73A435",
"*. c #78A736",
"=. c #78A737",
"-. c #76A836",
";. c #79A836",
":. c #7AA936",
">. c #7AAA37",
",. c #7BAA37",
"<. c #7BAC37",
"1. c #7CAD37",
"2. c #7DAE37",
"3. c #7AAA37",
"4. c #7CAB38",
"5. c #7DAD38",
"6. c #7DAC38",
"7. c #7FAF39",
"8. c #7CAC38",
"9. c #7FB039",
"0. c #80AF37",
"q. c #81AF39",
"w. c #80AF38",
"e. c #80B039",
"r. c #81B139",
"t. c #81B038",
"y. c #82B138",
"u. c #83B239",
"i. c #83B13A",
"p. c #81B23A",
"a. c #84B339",
"s. c #85B439",
"d. c #85B539",
"f. c #85B53A",
"g. c #86B53A",
"h. c #87B63A",
"j. c #84B439",
"k. c #88B63A",
"l. c #88B73A",
"z. c #88B83A",
"x. c #89B93B",
"c. c #89B83A",
"v. c #8AB83A",
"b. c #8BB93A",
"n. c #8AB93A",
"m. c #8BBA3B",
"M. c #8CBB3B",
"N. c #8DBB3B",
"B. c #8DBC3B",
"V. c #8EBC3B",
"C. c #8CBB3C",
"Z. c #8DBC3C",
"A. c #8EBC3C",
"S. c #8EBD3C",
"D. c #8EBE3C",
"F. c #8FBE3C",
"G. c #8BBA3B",
"H. c #90BE3C",
"J. c #90BF3C",
"K. c #91BF3C",
"L. c #90BF3D",
"P. c #93C13D",
/* pixels */
"                                                                                              ",
"                                            f l s                                             ",
"                                      s x K P K z g s s                                       ",
"                                    s f B K P P L J f s s s                                   ",
"                                  J O...W V B V J B g g c N f s                               ",
"                                ( V.P.x.5...U B c h c J L V N g s                             ",
"                              U J.J.x.g.e.5.:.W B V ^ ' T K V N f r t                         ",
"                            c ( A.A.a.e.x.x.e.T B W k.g.e.{ P K x r 0 t s                     ",
"                      s l z V ^ x.A.A.V.g.:.{ Y K ^ e.M.x.e.*.^ V g t t r                     ",
"                    g K U P K W 5.e.e.:.@.:.@.W L ` g.x.g.g.q.^ V c y t 0 0                   ",
"                    V W ^ P V P T ..4.2.5.:._ P J U e.g.g.a...L B l r s s r r                 ",
"                  z J L L B g V P T @...U J K B N K @.<.a.@.Y K B h l s s s s                 ",
"              f c Q g.g.:.Y J V V K Y K z g B N z V P ( O.Y K J J P U V z f s r               ",
"            s N e.C.A.J.x.e.e.*.J h N c V L Y P J B B K L J c B ..q.@.T K V h t t             ",
"            r J k.A.M.M.x.x.x.e.^ h z K ..0.2.:.@.W K B h x c U :.x.2.' ..W N r t             ",
"            s B ..g.C.V.x.g.g.e.T c B >.g.g.g.k.x.e.:.W V B K W q.M.e.@.@.P N y t t           ",
"            s N W :.g.>.>.k.e.' P B Y x.x.g.x.A.A.x.g.@.Y K P _ a.M.g.*.( K c u y r r         ",
"          s s z L T ^ W ^ @.W L K L g.J.g.g.M.V.M.k.g.5.^ P Q 5.a.k.5...T V l g c x s r       ",
"        s K U J V J J K P T ( ' ' T g.V.g.x.g.:.q.e.e.:.W L _ 2.2.>...W P V l g N z s t       ",
"      s c 5.x.-.L J B K ` 5.a.g.e.{ _ e.x.g.5.@.*.:.@.T U V W ' ' W P K V c f N c f s 0       ",
"      s J e.x.5.^ L K ' e.g.g.g.a.@.W T 5.@...>...^ W K J B K U W L J B c f g g s g g t 0     ",
"    r s N O.g.5.:.T U q.k.g.e.2.:.^ U L U U T ^ Q U K V N g N V J V B N c f g g f s j t 0 0   ",
"    r s c I ..:...W U 5.k.a.q.@.^ L V V J J K J K K J B g f g N B N N V V V V N c c g r t 0   ",
"    g N N N K P L L K ..e.e.@._ L N N N N B B V J J N h c J c c B V K Y W W L V N N N h s r a ",
"  s c W Q L J B B K K L W Q L K N N L L J J P W W U P P W ' Y V L Y ^ ..@.&.T K V B N c s s s ",
"  s B Q ..W L B P e.:...P J V V J W T W ^ ' @...( ^ ^ ' @.9.{ L ^ :.:.>.:.@.' W U V N N g s r ",
"  s g N L J N J g.J.A.x.:.U B V P ..' @.2.e.5.@.^ Q Q Q ' :.:.Q ^ @.5.2.*.../ T P V N N x s e ",
"  r s f g g c Y x.x.C.x.g.@.L L ^ 5.e.g.g.e.e.e.:.../ T Q :.e.<.^ ( 5.5.../ Q P V N N N g s 6 ",
"  y s x c c N L 2.x.g.:.>...Y Y q.x.x.x.g.e.e.k.x.g...W / *...O.Y T 2.:.^ U L V N N N g r 0   ",
"    s B K N c J ^ 5.g.:...( K L e.A.x.x.g.e.e.e.5.:.' U W T L J V L { ` U V N c z N h s 0 *   ",
"      x J N c V L ` ..^ T P V J &.k.a.<...:.5.@.T Y P V J K J B c N J L V N N l f c f s 0     ",
"      s c c l z B J K K K K B N L >.:.Q K W ^ U L J V N c x g g l l N N N c c f s g s t q     ",
"        u f t w c N N c B V B x c U ^ P B B V V V B c l f s g c l g c N c g s t r r 0 i =     ",
"          t 8 0 j c c g z c N c g N K L V N c N B c g s f l c N l s l z d s t 0 0 w 9 O       ",
"                7 y z h s f l l s s z B B B N c k u y u u l z g s s s s s t q q p w           ",
"                  9 0 t t 0 y s r 0 t g l h x g y 0 0 0 r s s r 0 t s r 0 9 = - *             ",
"                    = 9 = o - t y 9 9 t r s s r y 0 9 t s s s t q t t 0 8                     ",
"                              @ - : > q 0 9 9 q > > : 9 t 0 9 q - * o                         ",
"                                % 1 & 1 ; ; ; ; < < 1 ; > > > ; $                             ",
"                                # 2 m b 2 2 1 1 2 1 1 1 1 1 1 < 1 X                           ",
"                                1 D G b 3 C M 5 b 2 1 5 1 2 3 1 &                             ",
"                                n A n 1 v F S C Z 5 2 C n 1 3 2 1 +                           ",
"                                  . # 4 D H m Z G 5 1 Z G 5 &                                 ",
"                                      S F 5 1 M G 5 & 4 M b 1                                 ",
"                                              5 b $   . , 1 %                                 ",
"                                                                                              ",
"                                                                                              "
};
