/* XPM */
static char * character_3_xpm[] = {
"128 128 8 1",
" 	c #087830",
".	c #161C2E",
"+	c #D5B583",
"@	c #EFE1AB",
"#	c #FFFFFF",
"$	c #977B6B",
"%	c #433D5B",
"&	c #775396",
"                                                                                                                                ",
"                                                                                                                                ",
"                                                                                                                                ",
"                                                                                                                                ",
"                                                                                                                                ",
"                                                                                                                                ",
"                                                                                                                                ",
"                                                                                                                                ",
"                                                                                                                                ",
"                                                                                                                                ",
"                                                                                                                                ",
"                                                                                                                                ",
"                                                                                                                                ",
"                                                                                                                                ",
"                                                                                                                                ",
"                                                                                                                                ",
"                                                                                                                                ",
"                                                                                                                                ",
"                                                                                                                                ",
"                                                                                                                                ",
"                                                                                                                                ",
"                                                                                                                                ",
"                                                                                                                                ",
"                                                                                                                                ",
"                                                                                                                                ",
"                                                                                                                                ",
"                                                                                                                                ",
"                                                                                                                                ",
"                                                                                                                                ",
"                                                                                                                                ",
"                                                                                                                                ",
"                                                                                                                                ",
"                                                                                                                                ",
"                                                                                                                                ",
"                                                                                                                                ",
"                                                                                                                                ",
"                                                                                                                                ",
"                                                                                                                                ",
"                                                                                                                                ",
"                                                        ..............                                                          ",
"                                                      ..................                                                        ",
"                                                    .......+@@@@@@@@@.....                                                      ",
"                                                   ......##@@@@@@@@@@@@....                                                     ",
"                                                 .....+@##@@@@@@@@@@@@@@....                                                    ",
"                                                .....@@##@@@@@@@@@@@@@@@@@...                                                   ",
"                                                ...+@@###@@@@@@@@@@@@@@@@@@...                                                  ",
"                                               ....+@####@@@@@@@@@@@@@@@@@#....                                                 ",
"                                              ....++@######@@@@@@@@@@@@@@@##...                                                 ",
"                                              ...++@@##@###@##@@@#@@@@@#@@###...                                                ",
"                                              ...++@@##@##@@##@@@##@@@@#@@###.+..                                               ",
"                                             ....++@@##@##@@##@@###@@@##@@@@#@+..                                               ",
"                                             ...+++@@@#@@@@@@#@@###@@@##@@@@@@+...                                              ",
"                                            ....+++@@@@@@@@@@@@@@@@@@@#@@@@@@@@...                                              ",
"                                            ..$.+++@@@@@+@@@@@@@@@@@@@@@@@@@@@@....                                             ",
"                                           ...$.+++@@@@@+@@@@@@@@@@@@@@@@@@@@@@+...                                             ",
"                                           ...$$+++@@@@@+@@@@@@@@@@@@@@@@+@@@@@+...                                             ",
"                                          ....$$+++@+@@@+@@@@@@@@@+@@@@@@+@@@@@@...                                             ",
"                                          ....$$+++++@@@@@@@@@@@@@+@@@@@@+@@@@@@@...                                            ",
"                                          ....$$+++++@@@@@@@@@@@@@+@@@@@@+@@@@@@@...                                            ",
"                                         ....$$$+++++@@@+@@@@@@@@@+@@@@@@@@@@@@@++..                                            ",
"                                         ....$$$$+++++@@+@@@@@@@@@+@@@@@@+@@@+@@++....                                          ",
"                                   .........++$$$$+$+++++@@@@@@@@+++@@@@@+@@@+@+++....                                          ",
"                                   ........++++$$$+$+++++@+@@@@@@++++@@@+++@@++++$$....                                         ",
"                                   ..@@@@@@@+++$$$$$++++++++++@@@++++++++++++++$+$$+.........                                   ",
"                                   ..@@@@@@@++++$$$$$++++++++++++++++++++++++++$$$+++@@@.....                                   ",
"                                   ...@@@@@@@++++++$$$$+++++++++++++$++.++++++$$$++++@@@@@@..                                   ",
"                                    ...@@@@++++++++++++++++$+$++++++$$$..$$$++++++++++@@@@@..                                   ",
"                                    ...+++++...@++++++++++$$+$++$$$$$$...$$$++++++..++++@@..                                    ",
"                                     ....++...@@++++++++++$$+++++++$$$....+++++@@++.........                                    ",
"                                      .......@@@++.@@+++++$++++++++++......+++@@@@++.......                                     ",
"                                        ..@@@@@++..@@@@@+++++++++++++.......+@@@@@@@+++....                                     ",
"                                         ..@@@+...@@@@@@+++++@@@@@@@.........@@@@@@@@@....                                      ",
"                                         ........@@@@@..+++@@@@@@@@....%%......@@@@@.....                                       ",
"                                          .............@@@@@@@@@......%%%%%%............                                        ",
"                                            .............@@@@@.......%%%%%%%%............                                       ",
"                                           .........................%%%%&&%%%%%%..........                                      ",
"                                          ....$$$....%%...........%%%%%&&&&%%%%%....++$$...                                     ",
"                                          ...$$$++...%%%........%%%%%%&&&&&&&%%%...++++$$..                                     ",
"                                          ..$$$++++...%%%%%%%%%%%%%%%&&&&&&&&&&%..+++++$$..                                     ",
"                                          ..$$$++++...%&&%%%&&&&&&&&&&&&&&&&&&%%..+++++$$..                                     ",
"                                          ..$$$++++...&&&%&&&&&&&&&&&&&&&&&&&%%....+++$$$..                                     ",
"                                          ...$$$++...%%%%%%%%%%%%%%%%%%%%%%%%%......$$$$..                                      ",
"                                           ...$$$........%%%%%%%%%%%%%%%%%%%..............                                      ",
"                                            .....................................  ......                                       ",
"                                              ..................................                                                ",
"                                                    ......              .......                                                 ",
"                                                      .....            .......                                                  ",
"                                                       ....            ...                                                      ",
"                                                      ....             ....                                                     ",
"                                                                                                                                ",
"                                                                                                                                ",
"                                                                                                                                ",
"                                                                                                                                ",
"                                                                                                                                ",
"                                                                                                                                ",
"                                                                                                                                ",
"                                                                                                                                ",
"                                                                                                                                ",
"                                                                                                                                ",
"                                                                                                                                ",
"                                                                                                                                ",
"                                                                                                                                ",
"                                                                                                                                ",
"                                                                                                                                ",
"                                                                                                                                ",
"                                                                                                                                ",
"                                                                                                                                ",
"                                                                                                                                ",
"                                                                                                                                ",
"                                                                                                                                ",
"                                                                                                                                ",
"                                                                                                                                ",
"                                                                                                                                ",
"                                                                                                                                ",
"                                                                                                                                ",
"                                                                                                                                ",
"                                                                                                                                ",
"                                                                                                                                ",
"                                                                                                                                ",
"                                                                                                                                ",
"                                                                                                                                ",
"                                                                                                                                ",
"                                                                                                                                ",
"                                                                                                                                ",
"                                                                                                                                ",
"                                                                                                                                ",
"                                                                                                                                ",
"                                                                                                                                "};
