/* XPM */
static char * girl_running_xpm[] = {
"32 32 9 1",
" 	c #087830",
".	c #1B1B1B",
"+	c #323232",
"@	c #CDC4BC",
"#	c #6E7689",
"$	c #575E6E",
"%	c #404652",
"&	c #222034",
"*	c #2A2F37",
"                                ",
"                                ",
"                                ",
"                                ",
"                                ",
"                .....           ",
"               .....+++++       ",
"             ......+++@@+       ",
"           .....  .++@@++       ",
"         ..  ..  . +@@@@@       ",
"            ..  .##$+@@@@       ",
"           .   ####$$           ",
"              ####$$%           ",
"            #####$$$%           ",
"          ######%$$%            ",
"         ######%$$%             ",
"         #####%&&&              ",
"          ###%##**              ",
"           %%###***             ",
"          %####*****            ",
"          ####******            ",
"         ####  ****             ",
"         ###  ****              ",
"         ##  **                 ",
"         ..  *                  ",
"        ..                      ",
"       .                        ",
"       .                        ",
"                                ",
"                                ",
"                                ",
"                                "};
