/* XPM */
static char * rocks_128_xpm[] = {
"128 128 8 1",
" 	c #087830",
".	c #161C2E",
"+	c #8CC3C4",
"@	c #506A69",
"#	c #669D9D",
"$	c #D0DEB5",
"%	c #C6F0DB",
"&	c #458597",
"                                                                                                                                ",
"                                                                                                                                ",
"                                                                                                                                ",
"                                                                                                                                ",
"                                                                                                                                ",
"                                                                                                                                ",
"                                                                                                                                ",
"                                                                                                                                ",
"                                                                                                                                ",
"                                                                                                                                ",
"                                                                                                                                ",
"                                                                                                                                ",
"                                                                                                                                ",
"                                                                                                                                ",
"                                                                                                                                ",
"                                                                                                                                ",
"                                                                                                                                ",
"                                                                                                                                ",
"                                                                                                                                ",
"                                                                                                                                ",
"                                                                                                                                ",
"                                                                                                                                ",
"                                                                                                                                ",
"                                                                                                                                ",
"                                                                                                                                ",
"                                                                                                                                ",
"                                                                                                                                ",
"                                                                                                                                ",
"                                                                                                                                ",
"                                                                                                                                ",
"                                                                                                                                ",
"                                                                                                                                ",
"                                                                                                                                ",
"                                                                                                                                ",
"                                                                  .......                                                       ",
"                                                           ...............                                                      ",
"                                                         .........++++++....                                                    ",
"                                                       .....++++++++++++++....                                                  ",
"                                                    .....++++++++++++++++++....                                                 ",
"                                                  ....+++++++++++++++++++++++...                                                ",
"                                                ....++++++++++++++++++++++++++...                                               ",
"                                               ..++++++++++++++++++++++++++++++...                                              ",
"                                             ...++++++++++++++++++++++++++++++++...                                             ",
"                                           ...+++++++++++++++++++++++++++++++++++...                                            ",
"                                         ...++++++++++++++++++++++++++++++++++++++...                                           ",
"                                        ..+++++++++++++++++++++++++++++++++++++++++...                                          ",
"                                       ..+++++++++++++++++++++++++++++++++++++++++++..                                          ",
"                                     ....+++++++++++++++++++++++++++++++++++++++++++...                                         ",
"                                    .....++++++++++++++++++++++++++++++++++++++++++++...                                        ",
"                                   ......+++++++++++++++++++++++++++++++++++++++++++++...                                       ",
"                                  ...@@@..+++++++++++++++++++++++++++++++++++#####+++++..                                       ",
"                                 ..@@@@@..++++++++++++++++++++++++++++++++++++++####++....                                      ",
"                                ..@@@@@@@..++++++++++++++++++++++++++++++++#########+........                                   ",
"                                ..@@@@@@@@.########+++++++++++++++++++$$$$#####$$$$....#......                                  ",
"                              ....@@@@@@@@######++++++++++++++++++++++++$$$$$$$$$....###..###..                                 ",
"                             ....@@@@@@@@@@@++++$$$$+++++++++++++++++++++$$$$++....######.####..                                ",
"                            .....@@@@@@@@@@@@+$$$$$$$$$$++++++++++++++++++++++...########..####..                               ",
"                           ...##.@@@@@@@@@@@@@++++$$$$$++++++++++++++++++++++###########@..####+..                              ",
"                           ..###..@@@@@@@@@@@@...++++++++++++++++++++++$$$$############@@@..##++..                              ",
"                           .####..@@@@@@@@@@@@@...$$++++++++++++++++$$$$##############@@@@..##+++..                             ",
"                          ..####..@@@@@@@@@@@@@@...$$$$++++++++++$$$$$###################@..+++++..                             ",
"                          ..++##..@@@@@@@@@@@@@@@@...$$$$$++++$$$$$$$#####################.+++++++.                             ",
"                          .++++##..@@@@@@@@@@@@@@@@....$$$$$$$$$$$$######################..+++++++..                            ",
"                          .++++++##...@@@@@@@@@@@@@@@@..$$$$$$$$$######################+..+++++++...                            ",
"                         %..+++++++##...@@@@@@@@@@@@@@@......#########################+++++++++++.##.                           ",
"                        %%..++++++++++++++@@@@@@@@@@@@@@...########################..+++++++++++####.                           ",
"                       %%....++++++++++++++@@@@@@@@@@@@@@@.######################...++++++++++#######                           ",
"                       %%...@.+++++++++++++++@@@@@@@@@@@@@.#####################..++++++++$$$########%                          ",
"                      &%%...@@..++++++++++++++@@@@@@@@@@@@@####################.+++++++$$$$###########%                         ",
"                      &%%..@@@@@@@@@+++++++++++@@@@@@@@@@@@.##################..@$++$$$$..############%                         ",
"                     &&%%..@@@@@@@@@@@++++++++++@@@@@@@@@@@@##################..@$$$$$...#############%                         ",
"                     &&%....@@@@@@@@@@@@++++++++++@@@@@@@@@@@@@###############..@@$$$..###############%&                        ",
"                     &&%.......@@@@@@@@@++++++++++++@@@@@@@@@@@@@@@@##########..@@@@@@################%&                        ",
"                     &&%...@@@@@@@@@@@@@@@++++++++++++@@@@@@@@@@@#############..@@@@@@###############.&&                        ",
"                     &&%..@@@@@@@@@@@@@@@@@$$$+++++++++@@@@@@##################.@@@@@@##############..&&                        ",
"                      &%...@@@@@@@@@@@@@@@@..$$$$$$++++.@@@@@##################.@@@@@@@@@@@########..%&&                        ",
"                      &&%..@@@@@@@@@@@@@@@@@...$$$$$$....@@@@###################@@@@@@@@#########...%&&                         ",
"                      &&%%..@@@@@@@@@@@@@@@@@@.....###....@@.#################@@@@@@@@@@@#######.%%%%&&                         ",
"                       &&%%.@@@@@@@@@@@@@@@@@@@@..#######.@@.#############@@@@@@@..@@@@@@@###.%%%%%&&&                          ",
"                        &&%%%@@@@@@@@@@@@@@@@@@@..########@@..###################...@@@@@@...%%%%%&&                            ",
"                          &&%%%@@@@@@@@@@@@@@@@@@.########.@@.####################%...@@@..%%%%%&&                              ",
"                                 %@@@@@@@@@@@@@@@#########.@@.###################%%%....%%%%%&                                  ",
"                                  %%@@@@@@@@@@@@@#########.@@.################%%&&%%%%%%%%%%&&                                  ",
"                                    %@@@@@@@@@@@@.#########.@.###############%&&&&&&%%%%%%&&&                                   ",
"                                      %@@@@@@@@@@.#########....############%%&&  &&&&&&&&&&&                                    ",
"                                       &%%@@@@@@@..########......########%%%&&&   &&&&&&&&                                      ",
"                                        &&%%%@@@...#######.........%%%%%%&&&&&                                                  ",
"                                        &&&%%%%.....######.%%%%%%%%%%%%%&&&&                                                    ",
"                                          &&&%%%%%%...%%%%%%%%%%%%&&&&&&&&&&                                                    ",
"                                           &&&%%%%%%%%%%%%%&     &&&&&&&&&                                                      ",
"                                           &&&&%%%%%%%%&&&                                                                      ",
"                                            &&&&&&&&&&&&&                                                                       ",
"                                               &&&&&&&                                                                          ",
"                                                                                                                                ",
"                                                                                                                                ",
"                                            %%%        %%                                                                       ",
"                                                                                                                                ",
"                                                                                                                                ",
"                                                                                                                                ",
"                                                                                                                                ",
"                                                                                                                                ",
"                                                                                                                                ",
"                                                                                                                                ",
"                                                                                                                                ",
"                                                                                                                                ",
"                                                                                                                                ",
"                                                                                                                                ",
"                                                                                                                                ",
"                                                                                                                                ",
"                                                                                                                                ",
"                                                                                                                                ",
"                                                                                                                                ",
"                                                                                                                                ",
"                                                                                                                                ",
"                                                                                                                                ",
"                                                                                                                                ",
"                                                                                                                                ",
"                                                                                                                                ",
"                                                                                                                                ",
"                                                                                                                                ",
"                                                                                                                                ",
"                                                                                                                                ",
"                                                                                                                                ",
"                                                                                                                                ",
"                                                                                                                                ",
"                                                                                                                                ",
"                                                                                                                                ",
"                                                                                                                                "};
